<svg width="153" height="103" viewBox="0 0 153 103" fill="none" xmlns="http://www.w3.org/2000/svg">
<path d="M8.033 69.605H13.713V65.924H5.379V69.605H8.033ZM5.379 73.182V78.546H0.935001V66.161C0.900705 65.0506 1.2128 63.957 1.828 63.032C2.05573 62.6468 2.37811 62.3262 2.76454 62.1006C3.15097 61.875 3.58863 61.7519 4.036 61.743H15.079C15.5184 61.7569 15.9471 61.8825 16.3245 62.108C16.7019 62.3336 17.0156 62.6516 17.236 63.032C17.8458 63.8909 18.1615 64.924 18.136 65.977V78.546H13.713V73.182H5.379ZM32.542 71.813H23.335C22.3649 71.621 21.4995 71.0785 20.904 70.289C20.2611 69.4149 19.932 68.3494 19.97 67.265V66.133C19.9448 65.0248 20.2768 63.9379 20.917 63.033C21.1761 62.6392 21.5268 62.314 21.939 62.0853C22.3512 61.8567 22.8127 61.7313 23.284 61.72H37.406V65.792H24.757V68.132H33.957C34.8943 68.2443 35.7658 68.6712 36.429 69.343C36.7694 69.7239 37.0308 70.1686 37.198 70.6513C37.3652 71.134 37.4349 71.6451 37.403 72.155V74.13C37.4292 75.2555 37.0771 76.3573 36.403 77.259C36.1394 77.6521 35.7838 77.9749 35.3672 78.1994C34.9505 78.4238 34.4853 78.5432 34.012 78.547H19.946V74.63H32.546L32.542 71.813ZM51.709 71.813H42.509C41.5379 71.6221 40.6715 71.0794 40.076 70.289C39.4317 69.4156 39.1025 68.3496 39.142 67.265V66.133C39.1171 65.0247 39.4494 63.9378 40.09 63.033C40.349 62.6394 40.6996 62.3143 41.1116 62.0857C41.5236 61.857 41.9849 61.7316 42.456 61.72H56.575V65.792H43.926V68.132H53.126C54.0637 68.244 54.9356 68.671 55.599 69.343C55.9387 69.7243 56.1996 70.1691 56.3666 70.6517C56.5336 71.1344 56.6034 71.6453 56.572 72.155V74.13C56.5977 75.2554 56.2456 76.3571 55.572 77.259C55.3083 77.6523 54.9526 77.9751 54.5357 78.1996C54.1188 78.4241 53.6534 78.5433 53.18 78.547H39.116V74.63H51.709V71.813ZM71.325 65.924H62.936V74.363H71.325V65.924ZM72.667 61.742C73.1143 61.7512 73.5519 61.8744 73.9384 62.0997C74.3249 62.3251 74.6476 62.6453 74.876 63.03C75.5123 63.9468 75.8354 65.0447 75.797 66.16V74.129C75.8358 75.2441 75.5127 76.3417 74.876 77.258C74.6479 77.643 74.3253 77.9634 73.9387 78.1888C73.5521 78.4142 73.1144 78.5371 72.667 78.546H61.592C61.145 78.5371 60.7077 78.4141 60.3216 78.1887C59.9355 77.9633 59.6135 77.6429 59.386 77.258C58.7679 76.334 58.4533 75.2402 58.486 74.129V66.16C58.4532 65.0485 58.7678 63.9543 59.386 63.03C59.6139 62.6455 59.9361 62.3256 60.3221 62.1004C60.7081 61.8752 61.1452 61.7522 61.592 61.743L72.667 61.742ZM95.044 61.742V65.924H88.918V78.546H83.972V65.925H77.872V61.743L95.044 61.742ZM104.061 68.242H113.424V71.892H104.061V68.242ZM114.291 74.368H101.407V65.926H114.24V61.744H100.065C99.6177 61.7531 99.18 61.8762 98.7935 62.1016C98.407 62.327 98.0843 62.6472 97.856 63.032C97.2409 63.9575 96.9285 65.0512 96.962 66.162V74.131C96.9285 75.2414 97.2409 76.3349 97.856 77.26C98.084 77.6451 98.4066 77.9655 98.7932 78.1909C99.1798 78.4163 99.6176 78.5392 100.065 78.548H114.292L114.291 74.368ZM133.514 74.368V78.551H119.292C118.844 78.5421 118.407 78.4192 118.02 78.1938C117.633 77.9684 117.31 77.648 117.082 77.263C116.467 76.3379 116.155 75.2444 116.188 74.134V66.165C116.154 65.0545 116.466 63.9609 117.082 63.036C117.31 62.6509 117.633 62.3305 118.02 62.1049C118.407 61.8794 118.844 61.7562 119.292 61.747H133.465V65.929H120.628V74.368H133.514ZM148.028 61.747H152.71V78.547H148.028V72.526H140.01V78.547H135.41V61.747H140.01V68.61H148.028V61.747Z" fill="#0085D3"/>
<path d="M16.302 83.053V102.599H20.389V96.199H33.249C38.649 96.199 41.049 93.141 41.049 89.599C41.049 86.084 38.649 83.055 33.249 83.055L16.302 83.053ZM20.389 92.597V86.653H33.448C33.868 86.603 34.2937 86.6425 34.6973 86.7691C35.1008 86.8956 35.473 87.1062 35.7892 87.387C36.1055 87.6678 36.3586 88.0124 36.532 88.3982C36.7053 88.784 36.7949 89.2021 36.7949 89.625C36.7949 90.0479 36.7053 90.466 36.532 90.8518C36.3586 91.2376 36.1055 91.5822 35.7892 91.863C35.473 92.1438 35.1008 92.3544 34.6973 92.4809C34.2937 92.6075 33.868 92.647 33.448 92.597H20.389ZM44.804 102.597H48.89V96.168H61.69C64.29 96.168 64.89 97.568 64.89 98.654V102.598H69.122V98.738C69.122 96.709 68.036 95.109 65.55 94.309C66.7255 94.0686 67.7757 93.4143 68.5097 92.4652C69.2438 91.5161 69.6129 90.3352 69.55 89.137C69.55 85.222 66.578 83.05 61.777 83.05H44.804V102.597ZM48.89 92.538V86.651H62.09C64.605 86.651 65.376 88.308 65.376 89.594C65.376 90.88 64.605 92.538 62.09 92.538H48.89ZM74.048 102.596H78.135V83.052H74.048V102.596ZM83.432 102.596H99.492C106.492 102.596 108.892 99.253 108.892 92.823C108.892 86.393 106.492 83.05 99.492 83.05H83.432V102.596ZM104.722 92.823C104.722 96.566 104.15 98.595 99.493 98.595H87.519V87.025H99.493C104.151 87.025 104.722 89.082 104.722 92.825V92.823ZM137.339 86.938V83.052H121.85C114.85 83.052 112.419 86.395 112.419 92.825C112.419 99.255 114.848 102.598 121.85 102.598H137.339V98.683H121.85C118.021 98.683 116.877 97.254 116.592 94.654H136.992V90.996H116.592C116.878 88.396 118.021 86.938 121.85 86.938H137.339Z" fill="#0085D3"/>
<path d="M16.302 83.053V102.599H20.389V96.199H33.249C38.649 96.199 41.049 93.141 41.049 89.599C41.049 86.084 38.649 83.055 33.249 83.055L16.302 83.053ZM20.389 92.597V86.653H33.448C33.868 86.603 34.2937 86.6425 34.6973 86.7691C35.1008 86.8956 35.473 87.1062 35.7892 87.387C36.1055 87.6678 36.3586 88.0124 36.532 88.3982C36.7053 88.784 36.7949 89.2021 36.7949 89.625C36.7949 90.0479 36.7053 90.466 36.532 90.8518C36.3586 91.2376 36.1055 91.5822 35.7892 91.863C35.473 92.1438 35.1008 92.3544 34.6973 92.4809C34.2937 92.6075 33.868 92.647 33.448 92.597H20.389ZM44.804 102.597H48.89V96.168H61.69C64.29 96.168 64.89 97.568 64.89 98.654V102.598H69.122V98.738C69.122 96.709 68.036 95.109 65.55 94.309C66.7255 94.0686 67.7757 93.4143 68.5097 92.4652C69.2438 91.5161 69.6129 90.3352 69.55 89.137C69.55 85.222 66.578 83.05 61.777 83.05H44.804V102.597ZM48.89 92.538V86.651H62.09C64.605 86.651 65.376 88.308 65.376 89.594C65.376 90.88 64.605 92.538 62.09 92.538H48.89ZM74.048 102.596H78.135V83.052H74.048V102.596ZM83.432 102.596H99.492C106.492 102.596 108.892 99.253 108.892 92.823C108.892 86.393 106.492 83.05 99.492 83.05H83.432V102.596ZM104.722 92.823C104.722 96.566 104.15 98.595 99.493 98.595H87.519V87.025H99.493C104.15 87.025 104.722 89.082 104.722 92.826V92.823ZM137.339 86.936V83.05H121.85C114.85 83.05 112.419 86.393 112.419 92.823C112.419 99.253 114.848 102.596 121.85 102.596H137.339V98.681H121.85C118.021 98.681 116.877 97.252 116.592 94.652H136.992V90.994H116.592C116.878 88.394 118.021 86.936 121.85 86.936H137.339Z" stroke="#006DA9" stroke-width="0.216"/>
<path d="M72.915 11.793C93.365 9.433 111.315 24.226 113.933 44.501C114.217 46.6945 114.303 48.9091 114.189 51.118H119.152L119.162 50.918C119.253 50.988 119.348 51.056 119.444 51.118H125.136C125.597 50.3987 125.81 49.5487 125.744 48.697C125.76 47.9745 125.546 47.2655 125.134 46.6719C124.722 46.0783 124.132 45.6305 123.45 45.3929C122.767 45.1553 122.027 45.1401 121.336 45.3494C120.644 45.5587 120.036 45.9818 119.6 46.558L119.289 45.914C119.256 45.808 119.203 45.677 119.173 45.56L119.038 43.893L117.009 43.51C115.799 34.15 112.849 30.476 109.009 24.11C109.68 22.069 109.547 23.967 109.893 21.964C109.076 21.5514 108.426 20.8712 108.05 20.037C115.85 19.776 111.39 10.098 106.466 13.637C105.294 14.479 105.333 15.815 104.642 17.06L103.326 15.712C101.701 16.412 102.948 16.354 101.087 16.63C96.47 12.33 89.673 10.306 82.05 8.752L81.703 6.657L78.718 6.571C79.318 5.518 80.472 4.371 79.896 2.365C78.326 -3.068 69.111 2 74.326 6.154L73.058 6.646C73.031 6.653 72.082 6.739 71.931 6.754C71.687 8.445 72.008 7.729 71.286 8.711C65.459 9.556 55.244 13.254 52.55 16.687C50.69 16.301 51.798 16.368 50.111 15.715L48.151 17.764C47.421 9.638 38.632 13.99 41.443 18.842C42.293 20.309 43.686 20.394 45.316 20.607L43.626 22.216C44.264 24.19 44.155 22.616 44.6 24.691C40.707 27.517 37.553 38.128 36.628 43.602L34.546 43.913L34.265 46.731C31.314 44.171 27.75 45.647 27.9 49.105C27.9213 49.8262 28.1512 50.5258 28.562 51.119H39.382C37.982 31.609 52.496 14.148 72.913 11.793" fill="#004973"/>
<path d="M102.098 51.118C103.682 50.864 105.158 50.471 107.76 49.806C107.721 50.2513 107.678 50.6887 107.632 51.118H110.025C110.181 49.1332 110.14 47.1377 109.902 45.161C107.815 28.58 93.066 13.461 73.102 15.877C56.126 17.934 42.456 32.318 43.603 51.118H45.893C45.8977 50.6486 45.9405 50.1804 46.021 49.718C47.4477 50.3495 48.9407 50.8191 50.472 51.118H59.085C58.685 50.857 58.229 50.53 57.685 50.152C57.5513 48.8499 57.8588 47.5406 58.558 46.434C53.884 46.134 49.564 46.165 45.942 48.095C45.542 44.188 47.259 39.085 48.535 36.007C49.753 33.066 52.741 28.59 54.609 27.44L62.097 37.213C63.273 35.388 63.097 34.169 66.02 34.162C66.934 34.638 67.392 34.782 67.874 35.834C68.392 36.964 68.083 37.39 68.653 38.101C70.612 36.5015 73.0213 35.5531 75.545 35.388C74.093 33.333 73.557 33.988 74.412 30.588C75.768 29.747 76.519 29.154 78.223 30.162C81.51 32.148 78.301 35.187 78.146 35.473C82.371 36.002 82.658 36.663 85.635 38.454C85.735 34.907 86.18 34.326 89.899 34.554C92.712 38.8 91.005 39.069 87.24 40.203C88.966 42.826 89.76 43.888 90.197 47.84C91.507 46.967 91.421 45.8 93.62 46.007C94.3084 46.0557 94.9526 46.3641 95.4221 46.8699C95.8917 47.3756 96.1515 48.0409 96.149 48.731C96.1803 49.1865 96.0987 49.6428 95.9114 50.0592C95.724 50.4756 95.4367 50.8393 95.075 51.118H102.098ZM91.798 38.158C92.498 36.944 94.746 34.737 95.865 33.33C97.602 31.145 98.251 30.83 99.153 27.854C101.492 29.169 104.186 34.315 105.243 36.636C106.922 40.18 107.715 44.0787 107.554 47.997C103.844 46.117 99.483 46.353 95.274 46.291L94.474 43.874C93.842 41.8569 92.9409 39.9342 91.795 38.158H91.798ZM91.672 51.118H90.134C90.157 51.054 90.181 50.99 90.205 50.93C90.567 50.03 90.247 50.514 90.748 49.912C90.9592 50.38 91.2754 50.793 91.672 51.119V51.118ZM63.4 51.119H62.194C62.5576 50.8211 62.9019 50.5004 63.225 50.159C63.283 50.504 63.342 50.823 63.4 51.119ZM74.406 30.591C70.16 31.705 69.288 32.56 65.906 33.858C62.941 29.397 58.056 27.544 55.937 25.786C60.865 21.728 67.437 18.001 76.209 17.886C74.357 22.286 74.475 25.415 74.403 30.586L74.406 30.591ZM79.748 30.662C79.518 26.124 79.725 21.3 77.922 18.005C85.243 17.417 94.496 22.728 97.989 26.199C95.569 28.16 97.089 25.386 90.189 32.042C89.4079 32.7071 88.7117 33.4658 88.116 34.301C86.7848 33.4503 85.4003 32.6861 83.971 32.013C82.604 31.469 80.879 31.125 79.748 30.662" fill="#00A1ED"/>
<path d="M82.685 50.886C82.656 50.966 82.625 51.042 82.593 51.119H90.138C90.161 51.054 90.185 50.991 90.209 50.931C90.571 50.031 90.251 50.515 90.752 49.913C90.9633 50.3809 91.2795 50.7939 91.676 51.12H95.07C95.4323 50.8413 95.72 50.4773 95.9075 50.0605C96.0951 49.6437 96.1767 49.187 96.145 48.731C96.1477 48.041 95.8881 47.3757 95.4187 46.87C94.9494 46.3642 94.3053 46.0557 93.617 46.007C91.417 45.8 91.503 46.967 90.193 47.841C89.756 43.889 88.962 42.827 87.236 40.204C91.001 39.071 92.707 38.804 89.895 34.555C86.177 34.328 85.73 34.909 85.631 38.455C82.654 36.664 82.368 36.003 78.142 35.474C78.298 35.188 81.506 32.149 78.219 30.163C76.519 29.155 75.764 29.748 74.408 30.589C73.553 33.989 74.089 33.332 75.541 35.389C73.0173 35.5541 70.608 36.5025 68.649 38.102C68.078 37.391 68.388 36.966 67.87 35.835C67.388 34.783 66.93 34.635 66.016 34.163C63.088 34.17 63.268 35.388 62.093 37.214L54.604 27.441C52.736 28.592 49.748 33.067 48.53 36.008C47.254 39.086 45.54 44.19 45.937 48.096C49.559 46.165 53.88 46.137 58.553 46.435C57.8537 47.5416 57.5463 48.8509 57.68 50.153C58.226 50.53 58.68 50.853 59.08 51.119H62.195C62.5586 50.8211 62.9029 50.5004 63.226 50.159C63.284 50.504 63.343 50.822 63.401 51.119H70.925C70.5107 49.805 70.5166 48.3945 70.942 47.084C73.153 39.526 85.595 42.966 82.682 50.884L82.685 50.886ZM58.552 46.433C59.427 42.141 60.402 40.976 62.06 37.71C64.09 38.91 62.611 39.795 66.51 39.761C65.153 42.497 63.723 43.507 63.377 47.578C61.364 45.828 61.507 45.826 58.553 46.433H58.552ZM49.478 43.771C49.612 40.666 52.138 35.576 53.726 33.346C55.4 33.917 57.786 36.78 59.078 38.188L56.828 43.843L49.478 43.771Z" fill="#004973"/>
<path d="M41.674 51.118C41.5348 48.8497 41.6048 46.5734 41.883 44.318C45.723 12.965 85.85 3.518 103.807 26.265C108.407 32.092 113 41.015 112.118 51.116H114.19C114.304 48.9071 114.218 46.6925 113.934 44.499C111.312 24.223 93.366 9.43 72.916 11.79C52.499 14.148 37.988 31.609 39.385 51.118H41.674Z" fill="#FFC48B"/>
<path d="M43.603 51.118C42.456 32.318 56.126 17.934 73.103 15.878C93.069 13.458 107.819 28.578 109.903 45.161C110.141 47.1377 110.182 49.1332 110.026 51.118H112.118C113 41.018 108.408 32.094 103.807 26.267C85.851 3.524 45.724 12.967 41.884 44.32C41.6052 46.5754 41.5352 48.8517 41.675 51.12L43.603 51.118Z" fill="#004973"/>
<path d="M50.472 51.117C48.9406 50.8184 47.4476 50.3488 46.021 49.717C45.9405 50.1794 45.8977 50.6476 45.893 51.117H50.472Z" fill="#004973"/>
<path d="M87.694 31.204L81.925 28.959L81.756 24.552L81.804 21.478C85.167 22.04 90.29 24.054 92.404 25.868C91.125 27.806 88.993 28.773 87.691 31.204H87.694ZM79.753 30.666C80.884 31.129 82.609 31.473 83.976 32.017C85.4053 32.6901 86.7898 33.4543 88.121 34.305C88.7167 33.4698 89.4129 32.7111 90.194 32.046C97.094 25.39 95.574 28.163 97.994 26.203C94.501 22.733 85.248 17.422 77.927 18.009C79.727 21.309 79.527 26.128 79.753 30.666" fill="#004973"/>
<path d="M99.812 33.256C102.137 36.3542 103.642 39.9897 104.187 43.825L96.814 43.817L94.394 38.456L99.812 33.256ZM91.801 38.156C92.9468 39.932 93.8479 41.8543 94.48 43.871L95.28 46.288C99.489 46.35 103.85 46.114 107.56 47.994C107.721 44.0761 106.929 40.1777 105.25 36.634C104.192 34.313 101.498 29.167 99.16 27.852C98.26 30.824 97.609 31.143 95.872 33.328C94.752 34.734 92.507 36.941 91.805 38.156" fill="#004973"/>
<path d="M82.684 50.885C85.596 42.965 73.155 39.525 70.943 47.085C70.5179 48.3955 70.512 49.806 70.926 51.12H82.591C82.622 51.044 82.654 50.967 82.683 50.888" fill="#FFC48B"/>
<path d="M61.073 25.683C63.473 24.645 68.409 21.272 71.896 21.745L71.92 28.701L65.97 31.301C63.853 28.795 61.997 27.867 61.07 25.679L61.073 25.683ZM74.407 30.591C74.479 25.416 74.361 22.285 76.213 17.891C67.442 18.004 60.869 21.731 55.941 25.791C58.06 27.549 62.941 29.402 65.91 33.863C69.29 32.563 70.162 31.71 74.41 30.596" fill="#004973"/>
<path d="M107.632 51.119C107.678 50.6897 107.721 50.2523 107.76 49.807C105.16 50.471 103.682 50.865 102.098 51.119H107.632Z" fill="#004973"/>
<path d="M61.074 25.679C61.997 27.867 63.853 28.794 65.974 31.301L71.924 28.701L71.9 21.745C68.414 21.271 63.477 24.645 61.077 25.683" fill="#FFC48B"/>
<path d="M49.48 43.773L56.829 43.845L59.079 38.19C57.788 36.782 55.401 33.919 53.727 33.348C52.139 35.578 49.613 40.668 49.479 43.773" fill="#FFC48B"/>
<path d="M94.394 38.455L96.814 43.816L104.186 43.824C103.642 39.9888 102.137 36.3533 99.812 33.255L94.394 38.455Z" fill="#FFC48B"/>
<path d="M87.694 31.204C88.994 28.773 91.127 27.804 92.407 25.869C90.29 24.054 85.167 22.041 81.807 21.479L81.759 24.553L81.929 28.96L87.694 31.204Z" fill="#FFC48B"/>
<path d="M58.559 46.435C61.514 45.828 61.37 45.83 63.383 47.58C63.729 43.508 65.159 42.498 66.516 39.763C62.616 39.797 64.096 38.915 62.066 37.711C60.409 40.978 59.433 42.143 58.559 46.435" fill="#00A1ED"/>
<path d="M76.899 35.775C77.5517 35.775 78.1897 35.5815 78.7324 35.2188C79.2751 34.8562 79.698 34.3409 79.9478 33.7379C80.1976 33.1349 80.2629 32.4713 80.1356 31.8312C80.0083 31.1911 79.694 30.6031 79.2324 30.1415C78.7709 29.68 78.1829 29.3657 77.5428 29.2384C76.9027 29.1111 76.2391 29.1764 75.6361 29.4262C75.0332 29.676 74.5178 30.0989 74.1551 30.6416C73.7925 31.1843 73.599 31.8223 73.599 32.475C73.599 33.3502 73.9467 34.1896 74.5655 34.8085C75.1844 35.4273 76.0238 35.775 76.899 35.775Z" fill="#004973"/>
<path d="M88.725 40.78C89.3777 40.78 90.0157 40.5865 90.5584 40.2238C91.1011 39.8612 91.524 39.3458 91.7738 38.7429C92.0236 38.1399 92.0889 37.4763 91.9616 36.8362C91.8343 36.1961 91.52 35.6081 91.0584 35.1465C90.5969 34.685 90.0089 34.3707 89.3688 34.2434C88.7287 34.1161 88.0651 34.1814 87.4621 34.4312C86.8591 34.681 86.3438 35.1039 85.9811 35.6466C85.6185 36.1893 85.425 36.8273 85.425 37.48C85.425 38.3552 85.7727 39.1946 86.3915 39.8134C87.0104 40.4323 87.8498 40.78 88.725 40.78Z" fill="#004973"/>
<path d="M65.171 40.585C65.8237 40.585 66.4617 40.3915 67.0044 40.0288C67.5471 39.6662 67.97 39.1508 68.2198 38.5479C68.4696 37.9449 68.5349 37.2813 68.4076 36.6412C68.2803 36.0011 67.966 35.4131 67.5044 34.9515C67.0429 34.49 66.4549 34.1757 65.8148 34.0484C65.1747 33.9211 64.5111 33.9864 63.9081 34.2362C63.3051 34.486 62.7898 34.9089 62.4271 35.4516C62.0645 35.9943 61.871 36.6323 61.871 37.285C61.871 38.1602 62.2187 38.9996 62.8375 39.6184C63.4564 40.2373 64.2958 40.585 65.171 40.585" fill="#004973"/>
<path d="M63.021 51.118C63.4826 50.6565 63.7971 50.0685 63.9245 49.4284C64.0519 48.7882 63.9867 48.1246 63.7369 47.5215C63.4872 46.9185 63.0642 46.403 62.5215 46.0403C61.9788 45.6777 61.3407 45.4841 60.688 45.4841C60.0353 45.4841 59.3972 45.6777 58.8545 46.0403C58.3118 46.403 57.8888 46.9185 57.6391 47.5215C57.3893 48.1246 57.3241 48.7882 57.4515 49.4284C57.5789 50.0685 57.8934 50.6565 58.355 51.118H63.021Z" fill="#004973"/>
<path d="M95.304 51.118C95.7658 50.6566 96.0803 50.0686 96.2079 49.4284C96.3354 48.7882 96.2702 48.1245 96.0205 47.5214C95.7709 46.9182 95.3479 46.4027 94.8052 46.0399C94.2624 45.6772 93.6243 45.4836 92.9715 45.4836C92.3187 45.4836 91.6806 45.6772 91.1378 46.0399C90.5951 46.4027 90.1721 46.9182 89.9224 47.5214C89.6727 48.1245 89.6076 48.7882 89.7351 49.4284C89.8627 50.0686 90.1772 50.6566 90.639 51.118H95.304Z" fill="#004973"/>
</svg>
