<?xml version="1.0" encoding="UTF-8"?>
<svg id="Layer_1" xmlns="http://www.w3.org/2000/svg" version="1.1" viewBox="0 0 646.81 212.54">
  <!-- Generator: Adobe Illustrator 29.0.1, SVG Export Plug-In . SVG Version: 2.1.0 Build 192)  -->
  <defs>
    <style>
      .st0 {
        fill: #3f2e2e;
      }

      .st1 {
        fill: #1a4797;
      }

      .st2 {
        fill: #008fd5;
      }
    </style>
  </defs>
  <path class="st1" d="M212.38,145.8h-18.24l-21.43-36.34h-24.51c-1.53,0-2.36.7-2.36,2.36v33.97h-16.43v-37.17c0-10.58,4.46-14.9,14.77-14.9h36.61c9.34,0,13.1-6.4,13.1-13.08s-4.05-12.4-13.1-12.4h-49.94l5.93-16.41h43.47c21.16,0,30.19,13.08,30.19,28.12,0,11.69-5.56,24.22-19.9,28.25l21.86,37.6Z"/>
  <path class="st2" d="M513.83,145.8h-18.24l-21.43-36.34h-24.51c-1.53,0-2.36.7-2.36,2.36v33.97h-16.43v-37.17c0-10.58,4.46-14.9,14.77-14.9h36.61c9.34,0,13.1-6.4,13.1-13.08s-4.05-12.4-13.1-12.4h-49.94l5.93-16.41h43.47c21.16,0,30.19,13.08,30.19,28.12,0,11.69-5.56,24.22-19.9,28.25l21.86,37.6Z"/>
  <path class="st1" d="M238.42,51.82v93.97h-16.43V51.82h16.43Z"/>
  <path class="st2" d="M263.48,51.82l28.54,75.59c.84,2.23,2.37,3.2,4.59,3.2s3.62-.97,4.59-3.2l29.93-75.59h18.24l-33.13,83.53c-3.48,8.77-9.88,12.11-19.63,12.11-9.19,0-16.29-2.92-19.77-12.11l-31.46-83.53h18.1Z"/>
  <path class="st2" d="M342.08,145.79h-18.1l32.99-83.53c3.48-8.77,9.88-12.11,19.77-12.11s16.15,3.34,19.49,12.11l31.74,83.53h-18.24l-28.54-75.59c-.83-2.23-2.37-3.2-4.59-3.2s-3.76.97-4.74,3.2l-29.79,75.59Z"/>
  <path class="st2" d="M536.71,145.79h-18.1l32.99-83.53c3.48-8.77,9.88-12.11,19.77-12.11s16.15,3.34,19.49,12.11l31.74,83.53h-18.24l-28.54-75.59c-.83-2.23-2.37-3.2-4.59-3.2s-3.76.97-4.73,3.2l-29.79,75.59Z"/>
  <path class="st1" d="M128.33,51.83v1.55c0,5.27-1.07,10.29-2.98,14.86-5.78,13.57-19.15,23.12-34.8,23.24,8.76-4.96,15.35-13.29,18.02-23.24h-1.67c-11.57,0-20.95,9.4-20.95,20.97v56.59h-16.43v-55.85c0-21.07,17.07-38.12,38.12-38.12h20.7Z"/>
  <path class="st1" d="M90.14,51.83c-7.56,3.39-13.82,9.19-17.81,16.41H31.91v-16.41h58.23Z"/>
  <g>
    <path class="st0" d="M289.34,158.88c4.94,0,8.05,3.04,8.05,9.32s-3.11,9.32-8.05,9.32h-8.26v7.48h-3.74v-18.14c0-5.36,2.36-7.98,6.85-7.98h5.15ZM281.09,173.88h7.87c3.25,0,4.66-1.66,4.66-5.68s-1.41-5.72-4.66-5.72h-3.67c-3.04,0-4.2,1.34-4.2,4.55v6.85Z"/>
    <path class="st0" d="M305.65,151.86v4.34h-3.78v-4.34h3.78ZM305.61,158.88v18.64h-3.74v-18.64h3.74Z"/>
    <path class="st0" d="M322.09,158.88c4.94,0,8.08,3.04,8.08,9.32s-3.14,9.32-8.08,9.32h-3.92c-4.98,0-8.08-3.04-8.08-9.32s3.11-9.32,8.08-9.32h3.92ZM318.53,162.48c-3.25,0-4.66,1.69-4.66,5.72s1.41,5.68,4.66,5.68h3.21c3.21,0,4.66-1.66,4.66-5.68s-1.45-5.72-4.66-5.72h-3.21Z"/>
    <path class="st0" d="M344.96,158.88c6.32,0,9.39,3,9.39,8.15v10.48h-3.78v-10.48c0-2.93-1.69-4.55-5.61-4.55h-6.11c-.32,0-.46.18-.46.53v14.51h-3.74v-15.74c0-2.19.74-2.89,2.61-2.89h7.69Z"/>
    <path class="st0" d="M371.75,158.88c4.41,0,6.28,2.12,6.28,5.72s-1.73,5.36-6.32,5.36h-8.86v1.34c0,1.48.81,2.58,2.86,2.58h11.4v3.64h-11.4c-4.66,0-6.49-2.61-6.49-6.14v-6.35c0-3.53,1.84-6.14,6.49-6.14h6.04ZM362.85,167.04h8.75c2.01,0,2.75-.85,2.75-2.22s-.81-2.33-2.65-2.33h-6c-2.05,0-2.86,1.13-2.86,2.58v1.98Z"/>
    <path class="st0" d="M394.75,158.88c4.41,0,6.28,2.12,6.28,5.72s-1.73,5.36-6.32,5.36h-8.86v1.34c0,1.48.81,2.58,2.86,2.58h11.4v3.64h-11.4c-4.66,0-6.49-2.61-6.49-6.14v-6.35c0-3.53,1.84-6.14,6.49-6.14h6.04ZM385.86,167.04h8.75c2.01,0,2.75-.85,2.75-2.22s-.81-2.33-2.65-2.33h-6c-2.05,0-2.86,1.13-2.86,2.58v1.98Z"/>
    <path class="st0" d="M418.29,158.88v3.6h-6.56c-1.66,0-2.4.78-2.4,2.4v12.64h-3.74v-13.2c0-3.74,1.38-5.44,5.05-5.44h7.66Z"/>
    <path class="st0" d="M425.74,151.86v4.34h-3.78v-4.34h3.78ZM425.7,158.88v18.64h-3.74v-18.64h3.74Z"/>
    <path class="st0" d="M441.37,158.88c6.32,0,9.39,3,9.39,8.15v10.48h-3.78v-10.48c0-2.93-1.69-4.55-5.61-4.55h-6.11c-.32,0-.46.18-.46.53v14.51h-3.74v-15.74c0-2.19.74-2.89,2.61-2.89h7.69Z"/>
    <path class="st0" d="M468.37,158.88c4.45,0,6.85,2.61,6.85,7.98v10.73c0,5.29-1.83,7.38-7.06,7.38h-11.08v-3.6h10.66c2.79,0,3.71-1.09,3.71-3.78v-.85h-8.22c-4.98,0-8.08-2.93-8.08-8.96s3.11-8.89,8.08-8.89h5.15ZM463.57,173.35h7.87v-6.53c0-3.04-1.16-4.34-4.16-4.34h-3.71c-3.21,0-4.66,1.62-4.66,5.44s1.45,5.44,4.66,5.44Z"/>
    <path class="st0" d="M505.39,158.88v3.6h-10.31c-1.73,0-2.43.71-2.43,2.12,0,1.31.56,2.01,2.65,2.01h4.38c5.15,0,6.46,2.36,6.46,5.26,0,3.32-1.73,5.65-6.11,5.65h-10.83v-3.64h10.83c1.73,0,2.44-.6,2.44-2.05s-.78-2.08-2.65-2.08h-4.41c-5.15,0-6.42-2.58-6.42-5.44,0-3.35,1.73-5.44,6.07-5.44h10.34Z"/>
    <path class="st0" d="M522.47,158.88c4.94,0,8.05,3.04,8.05,9.32s-3.11,9.32-8.05,9.32h-8.26v7.48h-3.74v-18.14c0-5.36,2.37-7.98,6.85-7.98h5.15ZM514.21,173.88h7.87c3.25,0,4.66-1.66,4.66-5.68s-1.41-5.72-4.66-5.72h-3.67c-3.04,0-4.2,1.34-4.2,4.55v6.85Z"/>
    <path class="st0" d="M546.92,158.88c4.66,0,6.49,2.61,6.49,6.14v8.75c0,2.68-.71,3.74-3.85,3.74h-8.72c-4.41,0-6.25-2.15-6.25-5.68s1.69-5.36,6.28-5.36h8.86v-1.41c0-1.45-.81-2.58-2.86-2.58h-11.15v-3.6h11.19ZM549.75,172.93v-3.49h-8.79c-1.98,0-2.68.81-2.68,2.19s.74,2.26,2.61,2.26h7.83c.74,0,1.02-.28,1.02-.95Z"/>
    <path class="st0" d="M575.51,158.88v3.6h-9.25c-3.25,0-4.66,1.69-4.66,5.72s1.41,5.68,4.66,5.68h9.25v3.64h-9.6c-4.98,0-8.08-3.04-8.08-9.32s3.11-9.32,8.08-9.32h9.6Z"/>
    <path class="st0" d="M592.09,158.88c4.41,0,6.28,2.12,6.28,5.72s-1.73,5.36-6.32,5.36h-8.86v1.34c0,1.48.81,2.58,2.86,2.58h11.4v3.64h-11.4c-4.66,0-6.49-2.61-6.49-6.14v-6.35c0-3.53,1.83-6.14,6.49-6.14h6.04ZM583.2,167.04h8.75c2.01,0,2.75-.85,2.75-2.22s-.81-2.33-2.65-2.33h-6c-2.05,0-2.86,1.13-2.86,2.58v1.98Z"/>
    <path class="st0" d="M618.49,158.88v3.6h-10.31c-1.73,0-2.44.71-2.44,2.12,0,1.31.56,2.01,2.65,2.01h4.38c5.15,0,6.46,2.36,6.46,5.26,0,3.32-1.73,5.65-6.11,5.65h-10.83v-3.64h10.83c1.73,0,2.44-.6,2.44-2.05s-.78-2.08-2.65-2.08h-4.41c-5.15,0-6.42-2.58-6.42-5.44,0-3.35,1.73-5.44,6.07-5.44h10.34Z"/>
  </g>
</svg>